<svg id="visual" viewBox="0 0 900 600" width="900" height="600" xmlns="http://www.w3.org/2000/svg" xmlns:xlink="http://www.w3.org/1999/xlink" version="1.1"><rect x="0" y="0" width="900" height="600" fill="#fff"></rect><defs><linearGradient id="grad1_0" x1="33.3%" y1="100%" x2="100%" y2="0%"><stop offset="20%" stop-color="#ffffff" stop-opacity="1"></stop><stop offset="80%" stop-color="#ffffff" stop-opacity="1"></stop></linearGradient></defs><defs><linearGradient id="grad2_0" x1="0%" y1="100%" x2="66.7%" y2="0%"><stop offset="20%" stop-color="#ffffff" stop-opacity="1"></stop><stop offset="80%" stop-color="#ffffff" stop-opacity="1"></stop></linearGradient></defs><g transform="translate(900, 600)"><path d="M-486.7 0C-465.5 -61.4 -444.2 -122.7 -413 -171.1C-381.7 -219.4 -340.5 -254.7 -304.1 -304.1C-267.7 -353.4 -236.1 -416.9 -186.3 -449.7C-136.4 -482.5 -68.2 -484.6 0 -486.7L0 0Z" fill="#175a74"></path></g><g transform="translate(0, 0)"><path d="M486.7 0C479.1 62.8 471.5 125.7 449.7 186.3C427.8 246.9 391.8 305.2 342.9 342.9C294.1 380.7 232.6 398 173.4 418.5C114.1 439.1 57 462.9 0 486.7L0 0Z" fill="#175a74"></path></g></svg>